<?xml version="1.0" encoding="iso-8859-1"?>
<!-- Uploaded to: SVG Repo, www.svgrepo.com, Generator: SVG Repo Mixer Tools -->
<svg height="800px" width="800px" version="1.1" id="Capa_1" xmlns="http://www.w3.org/2000/svg" xmlns:xlink="http://www.w3.org/1999/xlink" 
	 viewBox="0 0 27.963 27.963" xml:space="preserve">
<g>
	<g id="c131_X">
		<path style="fill:#030104;" d="M13.981,0.001C6.258,0.001,0,6.259,0,13.981c0,7.724,6.258,13.982,13.981,13.982
			c7.722,0,13.982-6.259,13.982-13.982C27.963,6.259,21.703,0.001,13.981,0.001z M13.981,26.534
			c-6.933,0-12.552-5.622-12.552-12.553c0-6.932,5.619-12.55,12.552-12.55c6.931,0,12.552,5.618,12.552,12.55
			C26.533,20.911,20.912,26.534,13.981,26.534z"/>
		<path style="fill:#030104;" d="M19.992,10.198l-2.228-2.227c0,0-3.552,3.783-3.783,3.783c-0.232,0-3.785-3.783-3.785-3.783
			l-2.227,2.228c0,0,3.783,3.473,3.783,3.787c0,0.311-3.783,3.784-3.783,3.784l2.227,2.224c0,0,3.524-3.782,3.785-3.782
			s3.783,3.782,3.783,3.782l2.229-2.224c0,0-3.785-3.531-3.785-3.784C16.207,13.725,19.992,10.198,19.992,10.198z"/>
	</g>
</g>
</svg>